<?xml version="1.0" encoding="UTF-8"?>
<svg width="385px" height="385px" viewBox="0 0 385 385" version="1.1" xmlns="http://www.w3.org/2000/svg" xmlns:xlink="http://www.w3.org/1999/xlink">
    <!-- Generator: Sketch 60.1 (88133) - https://sketch.com -->
    <title>warningElements</title>
    <desc>Created with Sketch.</desc>
    <g id="ukMessage" stroke="none" stroke-width="1" fill="none" fill-rule="evenodd">
        <g id="warningElements">
            <rect id="Rectangle" fill="#FEF600" x="0" y="0" width="385" height="385"></rect>
            <polygon id="Triangle" fill="#EB1C24" transform="translate(188.500000, 104.387697) scale(1, -1) translate(-188.500000, -104.387697) " points="188.5 91.8876972 218 116.887697 159 116.887697"></polygon>
            <polygon id="Triangle" fill="#EB1C24" points="188.5 0.887697219 206.070283 16.700118 171.739182 16.700118"></polygon>
            <polygon id="Triangle" fill="#EB1C24" points="188.5 367.887697 206.070283 383.700118 171.739182 383.700118"></polygon>
            <polygon id="Triangle" fill="#EB1C24" transform="translate(188.500000, 284.387697) scale(1, -1) translate(-188.500000, -284.387697) " points="188.5 271.887697 218 296.887697 159 296.887697"></polygon>
            <polygon id="Polygon" fill="#EB1C24" points="14.6254575 23 14.6254575 61.1953342 0.414870621 75.7747786 5.19600629e-14 37.2722508"></polygon>
            <polygon id="Polygon" fill="#EB1C24" points="14.6254575 99 14.6254575 137.195334 0.414870621 151.774779 5.19600629e-14 113.272251"></polygon>
            <polygon id="Polygon" fill="#EB1C24" points="14.6254575 174 14.6254575 212.195334 0.414870621 226.774779 5.19600629e-14 188.272251"></polygon>
            <polygon id="Polygon" fill="#EB1C24" points="14.6254575 249 14.6254575 287.195334 0.414870621 301.774779 5.19600629e-14 263.272251"></polygon>
            <polygon id="Polygon" fill="#EB1C24" points="14.6254575 324 14.6254575 362.195334 0.414870621 376.774779 5.19600629e-14 338.272251"></polygon>
            <polygon id="Polygon" fill="#EB1C24" transform="translate(377.312729, 49.387389) scale(-1, 1) translate(-377.312729, -49.387389) " points="384.625458 23 384.625458 61.1953342 370.414871 75.7747786 370 37.2722508"></polygon>
            <polygon id="Polygon" fill="#EB1C24" transform="translate(377.312729, 125.387389) scale(-1, 1) translate(-377.312729, -125.387389) " points="384.625458 99 384.625458 137.195334 370.414871 151.774779 370 113.272251"></polygon>
            <polygon id="Polygon" fill="#EB1C24" transform="translate(377.312729, 200.387389) scale(-1, 1) translate(-377.312729, -200.387389) " points="384.625458 174 384.625458 212.195334 370.414871 226.774779 370 188.272251"></polygon>
            <polygon id="Polygon" fill="#EB1C24" transform="translate(377.312729, 275.387389) scale(-1, 1) translate(-377.312729, -275.387389) " points="384.625458 249 384.625458 287.195334 370.414871 301.774779 370 263.272251"></polygon>
            <polygon id="Polygon" fill="#EB1C24" transform="translate(377.312729, 350.387389) scale(-1, 1) translate(-377.312729, -350.387389) " points="384.625458 324 384.625458 362.195334 370.414871 376.774779 370 338.272251"></polygon>
            <polygon id="Polygon" fill="#EB1C24" transform="translate(322.312729, 377.387389) rotate(90.000000) translate(-322.312729, -377.387389) " points="329.625458 351 329.625458 389.195334 315.414871 403.774779 315 365.272251"></polygon>
            <polygon id="Polygon" fill="#EB1C24" transform="translate(246.312729, 377.387389) rotate(90.000000) translate(-246.312729, -377.387389) " points="253.625458 351 253.625458 389.195334 239.414871 403.774779 239 365.272251"></polygon>
            <polygon id="Polygon" fill="#EB1C24" transform="translate(322.312729, 9.387389) rotate(90.000000) translate(-322.312729, -9.387389) " points="329.625458 -17 329.625458 21.1953342 315.414871 35.7747786 315 -2.72774915"></polygon>
            <polygon id="Polygon" fill="#EB1C24" transform="translate(246.312729, 9.387389) rotate(90.000000) translate(-246.312729, -9.387389) " points="253.625458 -17 253.625458 21.1953342 239.414871 35.7747786 239 -2.72774915"></polygon>
            <polygon id="Polygon" fill="#EB1C24" transform="translate(123.312729, 377.387389) scale(-1, 1) rotate(90.000000) translate(-123.312729, -377.387389) " points="130.625458 351 130.625458 389.195334 116.414871 403.774779 116 365.272251"></polygon>
            <polygon id="Polygon" fill="#EB1C24" transform="translate(47.312729, 377.387389) scale(-1, 1) rotate(90.000000) translate(-47.312729, -377.387389) " points="54.6254575 351 54.6254575 389.195334 40.4148706 403.774779 40 365.272251"></polygon>
            <polygon id="Polygon" fill="#EB1C24" transform="translate(123.312729, 9.387389) scale(-1, 1) rotate(90.000000) translate(-123.312729, -9.387389) " points="130.625458 -17 130.625458 21.1953342 116.414871 35.7747786 116 -2.72774915"></polygon>
            <polygon id="Polygon" fill="#EB1C24" transform="translate(47.312729, 9.387389) scale(-1, 1) rotate(90.000000) translate(-47.312729, -9.387389) " points="54.6254575 -17 54.6254575 21.1953342 40.4148706 35.7747786 40 -2.72774915"></polygon>
        </g>
    </g>
</svg>